<svg width="62" height="62" viewBox="0 0 62 62" fill="none" xmlns="http://www.w3.org/2000/svg">
<circle cx="31" cy="31" r="31" fill="#FFE000"/>
<path d="M22.9 27.64V29.86H30.36V27.64H22.9ZM12.06 23V24.96H21.06V23H12.06ZM11.86 30.96V32.98H21.04V30.96H11.86ZM11.8 27.46V29.44H21.22V27.46H11.8ZM26.14 28.6V39.7H28.46V28.6H26.14ZM15.4 21.18V23.88H17.74V21.18H15.4ZM15.4 29.32V39.78H17.74V29.32H15.4ZM21.82 22.6V29.58C21.82 32.32 21.6 35.74 19.28 38.2C19.82 38.5 20.7 39.32 21 39.84C23.72 37.02 24.1 32.6 24.1 29.62V23.74C24.46 23.68 24.6 23.58 24.62 23.38L21.82 22.6ZM28.36 21.22C26.94 21.98 24.58 22.7 22.44 23.18C22.72 23.64 23.06 24.48 23.18 25C25.52 24.56 28.24 23.88 30.28 22.96L28.36 21.22ZM17.56 33.06L16.28 34.1C17.02 34.76 18.54 36.26 19.2 37.06L20.58 35.34C20.1 34.94 18.18 33.44 17.56 33.06ZM13.06 25.26C13.38 26.02 13.64 27.04 13.68 27.7L15.64 27.18C15.54 26.52 15.26 25.54 14.9 24.82L13.06 25.26ZM18.04 24.78C17.86 25.48 17.52 26.5 17.24 27.18L19.14 27.58C19.44 26.96 19.78 26.1 20.16 25.18L18.04 24.78ZM15.42 32.14C14.54 33.9 12.88 35.84 11.3 36.86C11.8 37.24 12.5 38.04 12.88 38.56C14.48 37.26 16.14 34.96 17.12 32.76L15.42 32.14ZM37.46 24.1H44.5V26.8H37.46V24.1ZM35.14 21.82V29.08H46.96V21.82H35.14ZM32.4 30.76V39.8H34.66V33.04H37.64V39.68H40.04V30.76H32.4ZM41.74 30.76V39.8H44.04V33.04H47.24V39.7H49.66V30.76H41.74ZM33.4 36.5V38.8H38.64V36.5H33.4ZM42.84 36.5V38.8H48.44V36.5H42.84Z" fill="black"/>
</svg>
