<svg width="62" height="62" viewBox="0 0 62 62" fill="none" xmlns="http://www.w3.org/2000/svg">
<circle cx="31" cy="31" r="31" fill="#FF0000"/>
<path d="M20.46 28.66V30.68H29.44V28.66H20.46ZM20.46 32.6V34.62H29.44V32.6H20.46ZM20.2 36.62V38.8H30.34V36.62H20.2ZM24.1 25.84V37.26H26.32V25.84H24.1ZM25.36 21.06C25 22.56 24.28 24.58 23.62 25.88L25.68 26.4C26.34 25.2 27.2 23.32 27.9 21.58L25.36 21.06ZM20.78 20.98C20.04 23.74 18.72 26.42 17.06 28.08C17.52 28.6 18.28 29.7 18.58 30.2C20.5 28.14 22.12 24.84 23.08 21.56L20.78 20.98ZM21.76 24.68H20.64L19.46 25.86V39.78H21.76V26.78H29.96V24.68H21.76ZM11.4 31.24L11.9 33.58C13.74 33.08 16.06 32.44 18.24 31.8L17.96 29.68C15.58 30.28 13.08 30.9 11.4 31.24ZM11.8 24.82V27.02H17.98V24.82H11.8ZM14.16 21.04V37.1C14.16 37.38 14.06 37.48 13.8 37.48C13.54 37.48 12.72 37.48 11.94 37.44C12.24 38.1 12.54 39.14 12.62 39.78C13.98 39.78 14.94 39.7 15.6 39.3C16.26 38.92 16.46 38.28 16.46 37.1V21.04H14.16ZM32.12 22.06V23.96H49.92V22.06H32.12ZM34.2 25.38V27H49.74V25.38H34.2ZM37.96 32.14V33.66H49.84V32.14H37.96ZM37.52 34.34V35.92H47.94V34.34H37.52ZM36.32 21.02V25H38.68V21.02H36.32ZM43.36 21.02V25H45.76V21.02H43.36ZM39.78 24.42V26.04H42.04V24.42H39.78ZM37.7 26.5V30.48H39.72V26.5H37.7ZM42.06 26.5V30.48H44.1V26.5H42.06ZM33.12 25.38V29.8C33.12 32.34 32.96 35.94 31.36 38.46C31.92 38.68 32.9 39.26 33.32 39.62C35.04 36.9 35.34 32.7 35.34 29.82V25.38H33.12ZM34.5 27.82V29.16H46.6V30.1H34.5V31.44H48.94V27.82H34.5ZM36.84 30.94C36.52 32.58 36 34.68 35.58 36L37.74 36.2C38.14 34.88 38.66 32.86 39.02 31.18L36.84 30.94ZM47.38 34.34V34.6C47.24 36.78 47.06 37.66 46.82 37.92C46.68 38.08 46.54 38.1 46.28 38.1C46.02 38.1 45.5 38.1 44.92 38.02C45.18 38.5 45.36 39.24 45.4 39.76C46.22 39.8 46.98 39.8 47.4 39.74C47.9 39.68 48.32 39.54 48.68 39.16C49.12 38.68 49.36 37.56 49.54 35.1C49.56 34.84 49.58 34.34 49.58 34.34H47.38ZM35.84 36.18C35.46 37.14 34.76 38.16 33.9 38.78L35.56 39.84C36.54 39.1 37.16 37.98 37.58 36.9L35.84 36.18ZM38.14 36.68C38.32 37.6 38.46 38.82 38.42 39.6L40.3 39.32C40.28 38.56 40.12 37.36 39.88 36.44L38.14 36.68ZM40.66 36.68C41.04 37.5 41.42 38.58 41.54 39.3L43.3 38.72C43.14 38.04 42.76 36.98 42.34 36.2L40.66 36.68ZM43.2 36.4C43.64 36.96 44.16 37.76 44.36 38.26L45.94 37.54C45.7 37.04 45.2 36.3 44.72 35.78L43.2 36.4Z" fill="white"/>
</svg>
